/* XPM */
static char *_930580e8a914f82af5a9c6900f94560E2pFNHNO6c0emDT4[] = {
/* columns rows colors chars-per-pixel */
"64 64 226 2 ",
"   c #3E372E",
".  c #42392F",
"X  c #4E3E2D",
"o  c #533D2A",
"O  c #453B32",
"+  c #4A3E34",
"@  c #55422F",
"#  c #4C4135",
"$  c #4D4339",
"%  c #534537",
"&  c #53493D",
"*  c #3E4242",
"=  c #29667A",
"-  c #366B7B",
";  c #494945",
":  c #534C42",
">  c #544E48",
",  c #53524C",
"<  c #5B5549",
"1  c #5B554C",
"2  c #585652",
"3  c #5C5A54",
"4  c #61594F",
"5  c #635D54",
"6  c #7B614C",
"7  c #696259",
"8  c #796553",
"9  c #75695B",
"0  c #786858",
"q  c #507178",
"w  c #746D63",
"e  c #77736C",
"r  c #696B70",
"t  c #6A7577",
"y  c #787B79",
"u  c #847A6F",
"i  c #847C72",
"p  c #867F76",
"a  c #86817A",
"s  c #8C857A",
"d  c #90897E",
"f  c #D18D58",
"g  c #D1986E",
"h  c #136B92",
"j  c #1A7597",
"k  c #2B6E87",
"l  c #336E85",
"z  c #2A748E",
"x  c #33758C",
"c  c #3A778C",
"v  c #2A7996",
"b  c #337B96",
"n  c #347C94",
"m  c #3B7C92",
"M  c #0676A4",
"N  c #047BA3",
"B  c #47798B",
"V  c #567C8D",
"C  c #467F94",
"Z  c #577F90",
"A  c #767D82",
"S  c #2A839E",
"D  c #39829B",
"F  c #0A82A5",
"G  c #1586A7",
"H  c #248BA7",
"J  c #378BA3",
"K  c #3494AF",
"L  c #488599",
"P  c #558394",
"I  c #5A8494",
"U  c #588A9A",
"Y  c #5D8A9B",
"T  c #79868A",
"R  c #628595",
"E  c #638897",
"W  c #648C9B",
"Q  c #6A8D9C",
"!  c #768B94",
"~  c #65909F",
"^  c #458DA3",
"/  c #548FA1",
"(  c #4A92A9",
")  c #5994A5",
"_  c #499BB2",
"`  c #599EB2",
"'  c #638DA0",
"]  c #6493A2",
"[  c #6B94A4",
"{  c #659BA9",
"}  c #6C9DAC",
"|  c #7395A5",
" . c #749CAC",
".. c #7B9AA8",
"X. c #669FB2",
"o. c #58A2B6",
"O. c #76A1AE",
"+. c #7DA3AE",
"@. c #6BA2B4",
"#. c #74A3B3",
"$. c #7CA3B2",
"%. c #7DA9B8",
"&. c #7CB8CB",
"*. c #70BBD2",
"=. c #898886",
"-. c #948D83",
";. c #928E88",
":. c #8E908D",
">. c #94918B",
",. c #9B958B",
"<. c #9C948B",
"1. c #898C91",
"2. c #918E93",
"3. c #859195",
"4. c #8A9499",
"5. c #939294",
"6. c #9B9896",
"7. c #A2998F",
"8. c #A39D94",
"9. c #A59E99",
"0. c #A6A19C",
"q. c #AAA49C",
"w. c #B6A498",
"e. c #879DA6",
"r. c #959EA2",
"t. c #A19DA2",
"y. c #84A3AD",
"u. c #8AA5AD",
"i. c #97A4A9",
"p. c #83A6B3",
"a. c #8BA7B1",
"s. c #85A9B5",
"d. c #8CA9B3",
"f. c #85ACB9",
"g. c #8BADBB",
"h. c #94ABB3",
"j. c #9DADB4",
"k. c #94AEBA",
"l. c #8AB1BE",
"z. c #94B1BC",
"x. c #9AB2BD",
"c. c #A9A6A6",
"v. c #ADA9AD",
"b. c #B7ADA8",
"n. c #B3ADAC",
"m. c #B8B1AD",
"M. c #A2ADB3",
"N. c #AEAEB2",
"B. c #B2AEB2",
"V. c #A3B4BC",
"C. c #A8B4BA",
"Z. c #B5B2B5",
"A. c #BBB4B3",
"S. c #B6B5B9",
"D. c #BAB6BA",
"F. c #BABAB9",
"G. c #BCB9BC",
"H. c #C19681",
"J. c #CCAB97",
"K. c #D4AE94",
"L. c #C7B8AA",
"P. c #D4B8A3",
"I. c #C5BBB3",
"U. c #C3BBBC",
"Y. c #DBC3AC",
"T. c #C8C2B8",
"R. c #CAC5BB",
"E. c #D3CBBC",
"W. c #89B8C7",
"Q. c #83BBCC",
"!. c #8CBCCC",
"~. c #99B7C3",
"^. c #94BDCD",
"/. c #9BBECC",
"(. c #88BFD1",
"). c #A8BCC5",
"_. c #A3BEC9",
"`. c #BBBDC2",
"'. c #BABFC9",
"]. c #C4BEC2",
"[. c #C8BFC1",
"{. c #9CC2CF",
"}. c #8AC2D4",
"|. c #94C1D2",
" X c #9BC4D4",
".X c #A5C2CD",
"XX c #ABC2CC",
"oX c #B8C5CB",
"OX c #BCC6CC",
"+X c #A6C6D3",
"@X c #B6C8D1",
"#X c #9AD2E3",
"$X c #A8D5E5",
"%X c #B7D9E5",
"&X c #BDDAE4",
"*X c #C3C3C4",
"=X c #CBC4C4",
"-X c #CCCAC4",
";X c #C4C5CA",
":X c #CCC6CA",
">X c #C4C8CE",
",X c #CDCACC",
"<X c #D4CDC3",
"1X c #D0C7CB",
"2X c #D1CCCA",
"3X c #D9D4CB",
"4X c #DAD7D3",
"5X c #E1D8CD",
"6X c #E3DCD6",
"7X c #E6E1DB",
"8X c #C1DBE5",
"9X c #CFDDE3",
"0X c #D1DDE1",
"qX c #CCE1E9",
"wX c #D7E3E7",
"eX c #E6E7E7",
"rX c #EBECEC",
"tX c #F1EEEC",
"yX c #F0F0EF",
"uX c #EAEFF1",
"iX c #ECF7FA",
"pX c #F3F3F2",
"aX c #F9F8F7",
"sX c #F5F9FB",
"dX c #FDFDFD",
"fX c white",
/* pixels */
"fXfXfXfXfXfXfXfXfXfXfXfXfXfXfXfXfXfXfXfXfXfXfXfXfXfXfXfXfXfXfXfXfXfXfXfXfXfXfXfXfXfXfXfXfXfXfXfXfXfXfXfXfXfXfXfXfXfXfXfXfXfXfXfX",
"fXfXfXfXfXfXfXfXfXfXfXfXfXfXfXfXfXfXfXfXfXfXfXfXfXfXfXfXfXfXfXfXfXfXfXfXfXfXfXfXfXfXfXdXdXdXfXfXfXfXfXfXfXfXfXfXfXfXfXfXfXfXfXfX",
"fXfXfXfXfXfXfXfXfXfXfXfXfXfXfXfXfXfXfXfXfXfXfXfXfXfXfXfXfXfXfXfXfXfXfXfXfXfXfXfXfXdXrXeXeXtXdXfXfXfXfXfXfXfXfXfXfXfXfXfXfXfXfXfX",
"fXfXfXfXfXfXfXfXfXfXfXfXfXfXfXfXfXfXfXfXfXfXfXfXfXfXfXfXfXfXfXfXfXfXfXfXfXfXfXfXfXaX4X3X6X7XaXfXfXfXfXfXfXfXfXfXfXfXfXfXfXfXfXfX",
"fXfXfXfXfXfXfXfXfXfXfXfXfXfXfXfXfXfXfXfXfXfXfXfXfXfXfXfXfXfXfXfXfXfXfXfXfXfXfXfXfXyX2X<X3X7XpXdXfXfXfXfXfXfXfXfXfXfXfXfXfXfXfXfX",
"fXfXfXfXfXfXfXfXfXfXfXfXfXfXfXfXfXfXfXfXfXfXfXfXfXfXfXfXfXfXfXfXfXfXfXfXfXfXfXfXfXpX-X-X5X7XpXdXfXfXfXfXfXfXfXfXfXfXfXfXfXfXfXfX",
"fXfXfXfXfXfXfXfXfXfXfXfXfXfXfXfXfXfXfXfXfXfXfXfXfXfXfXfXfXfXfXfXfXfXfXfXfXfXfXfXfXyX-X<X3X7XpXfXfXdXdXfXfXfXfXfXfXfXfXfXfXfXfXfX",
"fXfXfXfXfXfXfXfXfXfXfXfXfXfXfXfXfXfXfXfXfXfXfXfXfXfXfXfXfXfXfXfXfXfXfXfXfXfXfXfXfXpX,X-X3X7XeXtXtXtXpXfXfXfXfXfXfXfXfXfXfXfXfXfX",
"fXfXfXfXfXfXfXfXfXfXfXfXfXfXfXfXfXfXfXfXfXfXfXfXfXfXfXfXdXdXdXfXfXfXfXfXdXfXfXfXfXpX,XR.5X5X5X3X6X6XtXfXfXfXfXfXfXfXfXfXfXfXfXfX",
"fXfXfXfXfXfXfXfXfXfXfXfXfXfXfXfXfXdXfXfXfXfXfXfXfXfXfXfXdXdXdXaXfXfXfXfXdXdXfXfXfXpX<XT.Y.Y.Y.3X5X6XeXfXfXfXfXfXfXfXfXfXfXfXfXfX",
"fXfXfXfXfXfXfXfXfXsXfXfXdXaXdXdXfXdXsXfXsXdXdXsXdXsXdXsXsXsXpXaXsXiXiXiXiXiXiXiXfXpX,XL.g P.E.3X3X6X7XfXfXfXfXfXfXfXfXfXfXfXfXfX",
"fXfXfXfXfXfXfXdXuX%X%X&X&X&X&X&X8X8X8X%X&X&X&X&X&X8X8X8X8X8X8X%X&X%X%X$X$X#X#X%XdXpX3XL.K.P.T.E.4X5X6XaXrXeXfXfXfXfXfXfXfXfXfXfX",
"fXfXfXfXfXfXfXdX9X^. X+X.X+X+X+X+X+X X X^.(.(.(.}.|. X X X X X X|.}.}.*.*.*.*.*.eXpX3XT.T.T.T.E.5X6X6XtX4X3XfXfXfXfXfXfXfXfXfXfX",
"fXfXfXfXfXfXfXsXqX/..XXX@X@X@X@X@X@X@X+X+X X^.!.Q.Q.&.!.!.!. X|.|.|.}.}.*.*.*.&.4X7X-XR.oXoXT.E.3X6X6X6XU.2XfXfXfXfXfXfXfXfXfXfX",
"fXfXfXfXfXfXfXfXwX_.XX@XOX@X@X@X@X@X@X@X@X@X+X+X+X/.^.!.Q.Q.(.!.|. X^.Q.}.*.*.&.4X5XE.R.F.*XL.Y.3X3X<Xb.m.2XdXfXfXfXfXfXfXfXfXfX",
"fXfXfXfXfXfXfXfXwX).oXOXOXOXOX;XOXOXOXOXOX@XOXOXOXOX@X@X.X^.W.Q.Q.^./.|.!.!.&.Q.,X3XT.E.-XR.w.P.<X<XI.w.n.-XdXfXfXfXfXfXfXfXfXfX",
"fXfXfXfXfXfXfXdXwX'.'.>X].'.`.`.'.].OXOXOXOX;XOX>X>X>X>X>X@X@X XQ.&.}.{./.}.Q.!.E.E.b.T.<XI.g K.<XR.b.c.b.=XfXfXfXfXfXfXfXfXfXfX",
"fXfXfXfXfXfXdXdXwX'.].'.B.).B.].].'.OX;X;XOX;X;X>X>X>X1X>X>X>X>XXX~.W.l./.{.!.~.3XE.L.T.E.T.w.L.<XU.b.q.c.*XfXfXfXfXfXfXfXfXfXfX",
"fXfXfXfXfXfXfXdXeX'.].`.v.v.v.B.v.G.;XOX;X;X;X;X>X].:X1X1X1X1X>X,X;X.X}.~.{.{._.E.E.m.T.R.T.q.F.-XI.q.9.c.T.aXfXfXfXfXfXfXfXfXfX",
"fXfXfXfXfXfXfXdXeX'.'.].].B.v.v.v.].].;X;X=X;X=X1X].:X].1X>X>X1X,X,X-XXX~.{.{.).R.E.I.T.T.I.q.C.R.I.q.9.q.G.aXfXfXfXfXfXfXfXfXfX",
"fXfXfXfXfXfXfXdXeX'.'.`.v.Z.t.t.c.v.B.Z.F.n.v.N.].B.B.B.[.[.1X[.,X,X1X>XXX{.).x.r.q.8.8.I.R.F.T.T.q.8.8.q.I.aXfXfXfXfXfXfXfXfXfX",
"fXfXfXfXfXfXfXdXeX`.].N.1.1.2.A 1.5.t.=.c.r.A 1.S.2.2.2.[.[.1X1X,X:X1X,XoX).XXj.,.,.7.,.b.T.T.T.m.9.6.7.q.A.pXfXfXfXfXfXfXfXfXfX",
"fXfXfXfXfXfXfXdXrX'.].v.A r A r T t.v.r 5.t.r =.B.2.v.2.B.[.1X[.1X1X1X,XOX).XXV.8.8.8.8.0.w.w.q.q.,.,.6.9.A.pXfXfXfXfXfXfXfXfXfX",
"fXfXfXfXfXfXfXdXeX`.].N.1.=.5.a 2.2.t.2.t.B.1.6.2.t.v.t.B.1X1X1X:X1X1X>XoX).XX).8.7.8.8.8.8.,.,.,.-.,.6.6.m.yXfXfXfXfXfXfXfXfXfX",
"fXfXfXfXfXfXfXdXeX`.`.F.n.n.n.c.v.c.b.I.A.L.b.A.w.b.H.w.L.L.[.[.=X-X;X`.C.oX).).6.,.6.,.7.,.,.,.-.=.,.>.>.m.tXfXfXfXfXfXfXfXfXfX",
"fXfXfXfXfXfXfXfXrXZ.G.F.A.m.n.m.A.B.n.n.A.A.B.A.].J.f H.g g H.1X=X=X`.j.M.).XXC.>.<.,.,.-.,.,.-.=.a -.:.=.c.rXfXfXfXfXfXfXfXfXfX",
"fXfXfXfXfXfXfXfXuXS.G.A.b.n.v.n.n.v.n.n.b.A.b.b.L.J.f f g g H.[.=X`.j.r.C.XX).C.,.-.,.-.-.-.d d a y s a =.q.eXfXfXfXfXfXfXfXfXfX",
"fXfXfXfXfXfXfXfXeXS.D.D.m.A.A.A.U.I.U.U.U.I.].U.[.[.K.K.J.P.P.].S.i.3.M.).).).V.>.d d d d d d d =.a y t a 0.eXfXfXfXfXfXfXfXfXfX",
"fXfXfXfXfXfXfXfXuX`.S.S.v.v.N.N.v.B.v.S.S.B.].].[.[.].].].[.].).e.3.i.).).).~.x.=.s s s s s s s s s y e t 6.eXfXfXfXfXfXfXfXfXfX",
"fXfXfXfXfXfXfXfXuX*XS.S.N.B.B.Z.B.S.N.B.`.S.B.].[.].].].].].M.e.4.i.C.).).V.~.j.=.i s i i s i s a i s y t :.7XfXfXfXfXfXfXfXfXfX",
"fXfXfXfXfXfXfXfXrX;XS.S.S.S.D.D.].D.].].].].U.].U.[.D.`.M.e.1.e.M.).).V.~.x.~.g.=.u i i u i u u u u u e e :.eXfXfXfXfXfXfXfXfXfX",
"fXfXfXfXfXfXfXfXpX*XS.Z.S.S.D.D.D.U.D.U.U.U.U.U.D.D.B.r.! 1.t.M.C.V.x.x.x.W.~.d.T ! 3.3.>.6.5.>.-.-.=.a t ;.4XfXfXfXfXfXfXfXfXfX",
"fXfXfXfXfXfXfXfXyX*XZ.Z.Z.Z.F.F.D.D.G.G.D.U.D.`.).r.! A 2.t.~.j.~.x.k.k.~.W.g.d.A A R ! 3.6.r.t.i.c.M.e.q -.6XfXfXfXfXfXfXfXfXfX",
"fXfXfXfXfXfXfXfXyX*XZ.F.Z.N.m.F.D.S.G.G.S.S.M.e.A ! 2.r.~.~.M.~.k.k.W.g.g.f.W.a.y w e r y p p s =.;.2.T r >.4XfXfXfXfXfXfXfXfXfX",
"fXfXfXfXfXfXfXfXyXOXZ.Z.F.m.m.F.A.S.B.N.j.3.A T 1.r.M.j.j.k.~.d.g.g.g.g.l.f.f.p.y 0 6 u 0 0 0 0 0 0 0 0 w -.4XfXfXfXfXfXfXfXfXfX",
"fXfXfXfXfXfXfXfXyXU.Z.N.Z.N.m.C.N.M.e.T A T 3.r.M.V.j.k.h.k.a.W.g.f.f.g.f.f.l.a.e 6 6 6 8 8 8 8 8 8 8 8 0 =.4XfXfXfXfXfXfXfXfXfX",
"fXfXfXfXfXfXfXfXyXoXN.N.m.M.j.i.T t A T 4.r.M.j.j.j.d.g.g.s.s.s.s.f.f.f.f.f.l.s.y 0 7 0 9 9 w w 9 9 w w w p 4XfXfXfXfXfXfXfXfXfX",
"fXfXfXfXfXfXfXfXyXF.N.i.r.T y t T 1.4.h.j.j.h.h.d.d.s.a.p.p.s.f.%.f.f.%.%.f.l.d.y 9 9 5 5 5 5 5 3 3 7 7 7 p 2XfXfXfXfXfXfXfXfXfX",
"fXfXfXfXfXfXfXdXrXM.T t T T T 3.i.j.h.h.h.a.d.d.s.p.a.p.p.%.p.p.%.#.@.#.%.g.x.h.t 5 5 5 3 5 3 3 2 3 3 3 5 p 2XfXfXfXfXfXfXfXfXfX",
"fXfXfXfXfXfXfXfXeX! T T ! r.h.h.u.a.a.a.a.a.p.a.p.p.$.$.$.%.#.#.@.@.#.%.z.z.x.d.A , 3 2 , 2 2 5 2 2 3 3 5 p =XfXfXfXfXfXfXfXfXfX",
"fXfXfXfXfXfXfXfXeXi.y.h.a.a.a.u.u.u.y.s.s.+.+.y.p.$.$.#. .#.X.X.) Y | z.~.k.~.a.t 4 4 4 ; 2 , 2 2 2 , 2 7 e T.fXfXfXfXfXfXfXfXfX",
"fXfXfXfXfXfXfXfXeXx.a.u.y.u.y.y.+.y.+.+.+.+.+.#.O.O.#.} X.X.X.} [ ! R e.e.e...| t 5 4 4 , 2 2 2 3 3 , , 3 e U.fXfXfXfXfXfXfXfXfX",
"fXfXfXfXfXfXfXfXeXl.s.y.+.+.+.O.O.O.O.O.O.O.O.O.#.} } }  .#.p.p.e.| ! u.y...Q Q t > 1 > > > , 2 , , , , < w F.fXfXfXfXfXfXfXfXfX",
"fXfXfXfXfXfXfXfXwX..~ ~ ~ ~ ~ E W W ~ W W W W W Y Y W W Q | ..e.e.! | e.| | E ' t 1 > > > > , , ; , , , 3 w A.fXfXfXfXfXfXfXfXfX",
"fXfXfXfXfXfXfXfXwXQ ~ ~ ] ~ ] ~ ] ] [ [ { [ [ ] | |  . . .e.y.u.e.y.p... .X.` Z t , 1 : > > > 1 , , , , 2 w A.fXfXfXfXfXfXfXfXfX",
"fXfXfXfXfXfXfXfX0XE { { } [ { } } } [ [ }  . . . ... .a.y.e.y.a.+. . .#.#.X.X.U t 1 1 : * ; > ; * * ; * ; w m.fXfXfXfXfXfXfXfXfX",
"fXfXfXfXfXfXfXfX0XE { { ~ V I ] [ I V Z R | R Z Q | R ..| R Q  .V Z Z / X.o.` Z q < : : $ ; > ; * * ; ; > 7 n.fXfXfXfXfXfXfXfXfX",
"fXfXfXfXfXfXfXfX0XI ) { Y P U ] | Y I R Q | Q R Q | E | | Q W ] Z ) ) ) o.o._ ^ q > : : : : : : ; ; ; , : 7 q.fXfXfXfXfXfXfXfXfX",
"fXfXfXfXfXfXfXfX4XU ) { ] q P W O.I R I E | R R R Q I I V ~ U P / ` ` ` ` _ _ L q : & & : : : : & > & > : 5 0.fXfXfXfXfXfXfXfXfX",
"fXfXfXfXfXfXfXfX9XP ) { ) P P E | ~ Q E Q O.Q I E ~ U I P U U L ( ` ( _ _ K K m q $ & & $ & & : & & & & & 1 <.fXfXfXfXfXfXfXfXfX",
"fXfXfXfXfXfXfXfX9XP U ) U q B I I E I P E [ ~ V P P P Y - L L L ^ ^ b b K K K H - $ $ $ $ & $ & & & & & & < <.fXfXfXfXfXfXfXfXfX",
"fXfXfXfXfXfXfXfX9XP ^ ( L B P P I ~ E P P ~ Y P P U L / B c c D J J D H H K H j - + $ # # $ % @ @ @ % & & < >.fXfXfXfXfXfXfXfXfX",
"fXfXfXfXfXfXfXfX9XZ ^ ( L - B V P ) P q P / B B P / B D - c k k x b v v G G G j - + # $ # # X o o o @ @ & < >.fXfXfXfXfXfXfXfXfX",
"fXfXfXfXfXfXfXfX9XC ^ ( J c L L P / U D - L B L L ^ c D D D x k J v H j G F F j = O + + + # X o o @ # # & & d fXfXfXfXfXfXfXfXfX",
"fXfXfXfXfXfXfXfX9XC J ^ L l L L L c L c - L L - - c c k k n z S K H G G N N M h = O + X + # + # @ # # # $ & =.sXfXfXfXfXfXfXfXfX",
"fXfXfXfXfXfXfXfX0XC D ( D x c L L B D c - D D D x D D x k S v S H G F F M M M h = . O O # O O O # . # . # $ a iXfXfXfXfXfXfXfXfX",
"fXfXfXfXfXfXfXfX0XC b ( J l l x x c x k l D D c x x n x k k k G G F F N N N h h =     O O O O O O O O O + $ i fXfXfXfXfXfXfXfXfX",
"fXfXfXfXfXfXfXfX9XC b J b z z x k x c x x D D S D b b S z v j G F N N N N N M h =     O .   . . O O O O O $ y aXfXfXfXfXfXfXfXfX",
"fXfXfXfXfXfXfXfX9XC b J J b b J D J J D D J K J J K J H G G G F F F N N M N M h =   . . . . . O O O # # $ : i sXfXfXfXfXfXfXfXfX",
"fXfXfXfXfXfXfXfX9XC z v v z v b n n m n D D D n n v v v v v v j j h j h j j j v { 6.6.6.6.9.0.0.c.c.c.n.n.Z.-XdXfXfXfXfXfXfXfXfX",
"fXfXfXfXfXfXfXfXuX_.~.~./._._._._.)..X.XXXXXXXXXXXXX.XXX.X.X+X.X.X.X.X.X/..X+X+XqXrXpXpXpXpXpXpXaXaXdXdXfXfXfXfXfXfXfXfXfXfXfXfX",
"fXfXfXfXfXfXfXfXdXsXdXaXaXaXaXaXsXdXdXdXfXfXfXdXfXfXfXfXfXdXfXfXdXdXfXfXfXfXfXfXfXfXfXfXfXfXfXfXfXfXfXfXfXfXfXfXfXfXfXfXfXfXfXfX",
"fXfXfXfXfXfXfXfXfXfXfXfXfXfXfXdXfXfXfXfXfXfXfXfXfXfXfXfXfXfXfXfXfXfXfXfXfXfXfXfXfXfXfXfXfXfXfXfXfXfXfXfXfXfXfXfXfXfXfXfXfXfXfXfX",
"fXfXfXfXfXfXfXfXfXfXfXfXfXfXfXdXfXfXfXfXfXfXfXfXfXfXfXfXfXfXfXfXfXfXfXfXfXfXfXfXfXfXfXfXfXfXfXfXfXfXfXfXfXfXfXfXfXfXfXfXfXfXfXfX"
};
