/* XPM */
static char *_cc52362222341edbacf4325520e0f51BW18l5Si5yYHWgph[] = {
/* columns rows colors chars-per-pixel */
"64 64 227 2 ",
"   c #3E372E",
".  c #42392F",
"X  c #4E3E2D",
"o  c #533D2A",
"O  c #453B32",
"+  c #4A3E34",
"@  c #55422F",
"#  c #4C4135",
"$  c #4D4339",
"%  c #4E483E",
"&  c #534537",
"*  c #53493C",
"=  c #3E4342",
"-  c #29667A",
";  c #366B7B",
":  c #484845",
">  c #4C4A44",
",  c #544C42",
"<  c #534E48",
"1  c #4D504E",
"2  c #5B5246",
"3  c #54524C",
"4  c #5C554C",
"5  c #585651",
"6  c #5D5A54",
"7  c #61594F",
"8  c #625D54",
"9  c #605D58",
"0  c #7B614C",
"q  c #686259",
"w  c #796756",
"e  c #75695B",
"r  c #507178",
"t  c #746D63",
"y  c #77736C",
"u  c #696B70",
"i  c #6A7677",
"p  c #797B78",
"a  c #847A6F",
"s  c #847C72",
"d  c #867F76",
"f  c #86817A",
"g  c #8C857A",
"h  c #90897E",
"j  c #D18D58",
"k  c #D1986E",
"l  c #146B92",
"z  c #187596",
"x  c #2C6D87",
"c  c #336E85",
"v  c #2A728C",
"b  c #33758D",
"n  c #3A768C",
"m  c #297995",
"M  c #347C94",
"N  c #3A7C93",
"B  c #0676A4",
"V  c #047BA3",
"C  c #47798B",
"Z  c #567C8D",
"A  c #467E93",
"S  c #767D81",
"D  c #34839B",
"F  c #3C839A",
"G  c #0A83A5",
"H  c #1687A7",
"J  c #248BA7",
"K  c #378BA3",
"L  c #3494AF",
"P  c #488599",
"I  c #558394",
"U  c #5A8394",
"Y  c #578A9A",
"T  c #5D8A9A",
"R  c #5A909F",
"E  c #79878A",
"W  c #638595",
"Q  c #638897",
"!  c #648C9C",
"~  c #6A8D9C",
"^  c #768B94",
"/  c #65909F",
"(  c #458DA3",
")  c #558FA1",
"_  c #4A92A9",
"`  c #5994A5",
"'  c #499BB2",
"]  c #589EB1",
"[  c #6493A2",
"{  c #6B94A4",
"}  c #6A96A8",
"|  c #659AA9",
" . c #6C9DAC",
".. c #7395A5",
"X. c #749CAC",
"o. c #7B9AA8",
"O. c #669FB2",
"+. c #58A2B6",
"@. c #79A2AE",
"#. c #6BA2B4",
"$. c #74A3B3",
"%. c #7CA3B2",
"&. c #7DA8B7",
"*. c #7CB8CB",
"=. c #70BBD2",
"-. c #888885",
";. c #948D83",
":. c #928E88",
">. c #94928C",
",. c #9B948B",
"<. c #9B958B",
"1. c #8A8C91",
"2. c #8F8F91",
"3. c #859195",
"4. c #8A9498",
"5. c #929295",
"6. c #9B9896",
"7. c #A1998F",
"8. c #A39D94",
"9. c #A59D99",
"0. c #A5A19B",
"q. c #AAA49C",
"w. c #B6A498",
"e. c #889DA7",
"r. c #949EA2",
"t. c #A09EA2",
"y. c #85A3AD",
"u. c #8AA5AE",
"i. c #97A3A9",
"p. c #83A6B3",
"a. c #8BA7B1",
"s. c #85A9B5",
"d. c #8CA9B3",
"f. c #85ACB9",
"g. c #8BADBB",
"h. c #93ABB3",
"j. c #9DADB4",
"k. c #94AEBA",
"l. c #8AB1BE",
"z. c #94B1BC",
"x. c #9AB2BC",
"c. c #ACA6A2",
"v. c #A8A6A8",
"b. c #ADA9AC",
"n. c #B7ADA8",
"m. c #B2ACAC",
"M. c #B8B1AD",
"N. c #A3ADB3",
"B. c #AEADB2",
"V. c #B3AEB2",
"C. c #A3B4BC",
"Z. c #A8B4BA",
"A. c #B5B2B5",
"S. c #BBB4B3",
"D. c #B6B5B9",
"F. c #BAB6B9",
"G. c #BABAB9",
"H. c #BCB9BC",
"J. c #C19681",
"K. c #CCAA96",
"L. c #D4AE94",
"P. c #C7B8AB",
"I. c #D4B8A3",
"U. c #C5BBB3",
"Y. c #C3BBBC",
"T. c #DBC3AC",
"R. c #C9C2B8",
"E. c #CAC5BC",
"W. c #D3CABC",
"Q. c #8AB7C7",
"!. c #83BBCC",
"~. c #8CBCCC",
"^. c #9AB8C4",
"/. c #94BDCD",
"(. c #9BBECD",
"). c #88BFD1",
"_. c #A8BCC5",
"`. c #A3BEC9",
"'. c #BCBDC2",
"]. c #BABFC9",
"[. c #C3BEC2",
"{. c #C8BFC2",
"}. c #9CC2CF",
"|. c #8AC2D4",
" X c #94C1D2",
".X c #9BC4D4",
"XX c #A4C1CD",
"oX c #ABC2CC",
"OX c #B8C5CC",
"+X c #BCC6CC",
"@X c #A6C6D2",
"#X c #B6C8D1",
"$X c #9AD3E3",
"%X c #A8D6E5",
"&X c #B7D9E4",
"*X c #BEDAE4",
"=X c #C3C3C4",
"-X c #CBC4C4",
";X c #CCCAC4",
":X c #C4C5CA",
">X c #CCC6CA",
",X c #C4C8CE",
"<X c #CACDCB",
"1X c #CDCACC",
"2X c #D4CDC3",
"3X c #D0C7CB",
"4X c #D1CCCA",
"5X c #D9D4CB",
"6X c #DAD7D3",
"7X c #E1D8CD",
"8X c #E3DCD6",
"9X c #E6E1DB",
"0X c #C2DBE5",
"qX c #CFDDE3",
"wX c #D1DDE1",
"eX c #CAE0E7",
"rX c #D7E3E7",
"tX c #E6E7E7",
"yX c #EBECEC",
"uX c #F1EEEC",
"iX c #EAEFF1",
"pX c #EDF4F5",
"aX c #F3F3F2",
"sX c #F7F7F7",
"dX c #F4F9FB",
"fX c #FDFDFD",
"gX c white",
/* pixels */
"gXgXgXgXgXgXgXgXgXgXgXgXgXgXgXgXgXgXgXgXgXgXgXgXgXgXgXgXgXgXgXgXgXgXgXgXgXgXgXgXgXgXgXgXgXgXgXgXgXgXgXgXgXgXgXgXgXgXgXgXgXgXgXgX",
"gXgXgXgXgXgXgXgXgXgXgXgXgXgXgXgXgXgXgXgXgXgXgXgXgXgXgXgXgXgXgXgXgXgXgXgXgXgXgXgXgXgXgXgXgXgXgXgXgXgXgXgXgXgXgXgXgXgXgXgXgXgXgXgX",
"gXgXgXgXgXgXgXgXgXgXgXgXgXgXgXgXgXgXgXgXgXgXgXgXgXgXgXgXgXgXgXgXgXgXgXgXgXgXgXgXgXgXgXfXgXgXgXgXgXgXgXgXgXgXgXgXgXgXgXgXgXgXgXgX",
"gXgXgXgXgXgXgXgXgXgXgXgXgXgXgXgXgXgXgXgXgXgXgXgXgXgXgXgXgXgXgXgXgXgXgXgXgXgXgXgXgXgXgXfXfXfXgXgXgXgXgXgXgXgXgXgXgXgXgXgXgXgXgXgX",
"gXgXgXgXgXgXgXgXgXgXgXgXgXgXgXgXgXgXgXgXgXgXgXgXgXgXgXgXgXgXgXgXgXgXgXgXgXgXgXgXgXfXyXtXuXuXfXgXgXgXgXgXgXgXgXgXgXgXgXgXgXgXgXgX",
"gXgXgXgXgXgXgXgXgXgXgXgXgXgXgXgXgXgXgXgXgXgXgXgXgXgXgXgXgXgXgXgXgXgXgXgXgXgXgXgXgXsX6X4X7X9XsXgXgXgXgXgXgXgXgXgXgXgXgXgXgXgXgXgX",
"gXgXgXgXgXgXgXgXgXgXgXgXgXgXgXgXgXgXgXgXgXgXgXgXgXgXgXgXgXgXgXgXgXgXgXgXgXgXgXgXgXaX4X2X7X8XaXfXgXgXgXgXgXgXgXgXgXgXgXgXgXgXgXgX",
"gXgXgXgXgXgXgXgXgXgXgXgXgXgXgXgXgXgXgXgXgXgXgXgXgXgXgXgXgXgXgXgXgXgXgXgXgXgXgXgXgXuX1X;X6X9XaXgXgXgXgXgXgXgXgXgXgXgXgXgXgXgXgXgX",
"gXgXgXgXgXgXgXgXgXgXgXgXgXgXgXgXgXgXgXgXgXgXgXgXgXgXgXgXfXfXfXfXgXgXgXgXgXgXgXgXgXyX1X;X5X8XaXgXgXfXgXgXgXgXgXgXgXgXgXgXgXgXgXgX",
"gXgXgXgXgXgXgXgXgXgXgXgXgXgXgXgXgXgXgXgXgXgXgXgXgXgXgXgXgXfXfXfXgXgXgXgXgXgXgXgXgXpX4X;X7X8XuXtXuXuXaXgXgXgXgXgXgXgXgXgXgXgXgXgX",
"gXgXgXgXgXgXgXgXgXgXgXgXgXgXgXgXgXgXgXgXgXgXgXgXgXgXgXgXgXgXfXfXgXgXgXgXgXgXfXfXgXaX4XE.7X7X7X5X7X9XuXfXgXgXgXgXgXgXgXgXgXgXgXgX",
"gXgXgXgXgXgXgXgXgXgXgXgXgXgXgXgXgXgXgXgXgXgXgXgXgXgXgXgXgXgXgXgXgXgXgXgXgXgXfXdXgXaX2XR.I.T.W.2X5X8XtXgXgXgXgXgXgXgXgXgXgXgXgXgX",
"gXgXgXgXgXgXgXgXfXsXfXfXgXgXfXfXfXdXfXfXgXdXdXdXdXdXfXdXsXsXsXaXdXdXdXdXdXpXpXdXgXaX1XP.L.L.W.W.6X8X8XgXgXgXgXgXgXgXgXgXgXgXgXgX",
"gXgXgXgXgXgXgXfXyX&X&X&X*X*X*X*X0X*X*X0X*X0X0X*X0X0X0X0X0X0X0X*X&X&X%X%X$X$X$X&XgXaX;XU.L.L.W.W.7X7X8XfXuXtXgXgXgXgXgXgXgXgXgXgX",
"gXgXgXgXgXgXgXgXqX/..X@X@X@X@X@X@X@X.X.X/.).).).)./..X.X.X.X.X.X X X|.=.=.=.=.|.tXaX5XR.E.R.R.W.7X8X8XaX6X5XgXgXgXgXgXgXgXgXgXgX",
"gXgXgXgXgXgXgXdXrX/.XXoX#X#X#X#X#X#XoX@XXX.X/.).).!.!.).). X X/. X|.|.).=.=.=.=.6XtX2XE.+XE.R.W.5X8X8X6XY.4XgXgXgXgXgXgXgXgXgXgX",
"gXgXgXgXgXgXgXfXrX(.].`.#X].#X+X#X+X#X#X#X#X#X@X@X.X/.).!.!.!./. X}. X!.!.=.=.!.5X7XW.E.'.G.R.T.5X7X2XM.M.1XgXgXgXgXgXgXgXgXgXgX",
"gXgXgXgXgXgXgXdXiX`.].].#X,X,X].+X,X+X+X+X+X+X#X#X#X].#X(./.!.!.!./.}./.~.*.*.Q.5XW.R.W.E.R.K.P.2X2XP.9.m.;XfXgXgXgXgXgXgXgXgXgX",
"gXgXgXgXgXgXgXfXrX`.].[.[.'.'.].+X+X+X+X+X+X:X+X,X,X,X,X,X,X@X.XQ.*.~.}.}.~.!.Q.2X2XP.R.;XR.k K.2XE.n.q.m.-XgXgXgXgXgXgXgXgXgXgX",
"gXgXgXgXgXgXgXfXyX].[.]._.V.V.[.].,X:X+X+X:X,X,X,X3X,X,X{.,X3X,XoX^.!.~.}.}.~./.2XW.M.R.W.R.w.P.2XU.n.c.c.Y.fXgXgXgXgXgXgXgXgXgX",
"gXgXgXgXgXgXgXfXtX].[.].b.b.V.V.c.H.:X:X:X:X:X:X,X,X{.>X3X,X3X3X<X<X}.Q./.}.}.`.<XW.R.R.E.R.q.H.2XU.c.0.c.Y.sXgXgXgXgXgXgXgXgXgX",
"gXgXgXgXgXgXgXfXtX].].[.[.V.m.m.m.H.=X=X=X-X:X:X{.{.3X3X,X,X3X3X2X<X<XoX^.}.^._.E.W.U.P.R.H.q.A.E.S.q.9.c.H.sXgXgXgXgXgXgXgXgXgX",
"gXgXgXgXgXgXgXfXtX].[.'.b.V.t.t.v.v.F.D.H.V.b.V.[.V.D.V.[.{.3X3X1X1X1X,X_.`.XX^.q.q.7.8.U.E.R.E.R.w.8.0.q.G.aXgXgXgXgXgXgXgXgXgX",
"gXgXgXgXgXgXgXfXtXOX[.B.-.1.1.S 1.5.t.-.r.t.S 2.D.5.1.5.[.3X3X3X1X4X1X1X+X`.oXC.7.h 8.h n.R.R.R.S.9.6.<.q.G.aXgXgXgXgXgXgXgXgXgX",
"gXgXgXgXgXgXgXfXyX'.'.B.p u S u -.r.t.u 5.t.u -.b.1.t.5.b.{.3X3X>X3X3X1X+X_.oXZ.6.8.0.8.0.q.q.q.0.<.<.<.0.S.aXgXgXgXgXgXgXgXgXgX",
"gXgXgXgXgXgXgXfXyXD.'.A.1.-.5.S 4.5.t.5.t.m.2.6.t.t.t.t.V.{.{.3X>X3X1X>X+X_.oX_.8.0.8.8.8.8.<.<.<.>.7.<.<.M.pXgXgXgXgXgXgXgXgXgX",
"gXgXgXgXgXgXgXgXyXH.'.H.m.m.m.c.n.c.M.U.S.Y.n.n.V.K.J.w.I.I.3X{.-X-X-X'.Z.oX_.Z.6.<.7.<.<.7.<.<.:.-.>.>.>.m.uXgXgXgXgXgXgXgXgXgX",
"gXgXgXgXgXgXgXfXtXH.H.H.M.S.V.M.S.V.V.b.S.S.S.S.{.I.j J.k k J.{.-X-X'.N.N.+XoXZ.<.;.<.,.<.h h <.-.f ;.:.:.q.yXgXgXgXgXgXgXgXgXgX",
"gXgXgXgXgXgXgXgXyXA.H.S.n.m.b.m.m.V.b.m.P.V.n.n.S.K.j j k j J.{.=X'.j.r.Z._.oXZ.>.;.;.<.h h h h f p -.f g q.tXgXgXgXgXgXgXgXgXgX",
"gXgXgXgXgXgXgXgXiXD.D.D.S.S.S.D.Y.U.Y.[.Y.Y.Y.Y.Y.I.K.K.I.K.{.[.G.i.3.N._._._.C.:.h ;.h h h h h h p p p f 0.tXgXgXgXgXgXgXgXgXgX",
"gXgXgXgXgXgXgXgXiX'.D.D.b.b.B.B.b.V.b.V.V.V.[.[.{.{.{.{.{.{.[.D.e.^ j._._._._.j.;.g g g h h g g g g p p i 6.tXgXgXgXgXgXgXgXgXgX",
"gXgXgXgXgXgXgXgXiX[.D.D.V.B.B.B.V.V.V.'.Y.V.[.[.{.{.D.{.{.D.k.4.4.i.Z._.C.^.^.h.h a d g f g f f a f s p u 2.tXgXgXgXgXgXgXgXgXgX",
"gXgXgXgXgXgXgXgXpX=XF.F.A.G.G.G.H.H.Y.[.Y.[.[.Y.Y.[.[.'.N.e.1.r.Z.Z.C._.x.^.^.a.f p s f s a s s a a a y y 2.tXgXgXgXgXgXgXgXgXgX",
"gXgXgXgXgXgXgXgXuX=XD.A.A.A.A.G.F.F.H.F.'.Y.Y.[.F.'.B.e.^ 3.r.Z.C._.^.k.^.z.Q.d.E ^ ^ 3.5.<.,.,.:.-.-.f u >.8XgXgXgXgXgXgXgXgXgX",
"gXgXgXgXgXgXgXgXpX=XG.A.A.G.G.G.F.F.F.[.F.Y.Y.D.B.e.^ -.5.i.^.N.x.z.z.^.^.g.Q.u.E E E ^ 3.6.r.r.r.N.N.e.r :.6XgXgXgXgXgXgXgXgXgX",
"gXgXgXgXgXgXgXgXyX[.A.A.A.A.M.H.F.F.F.H.D.V.N.e.E E 5.r.N.^.j.k.k.z.z.g.f.g.Q.u.p t u y p f f -.-.-.2.-.i >.6XgXgXgXgXgXgXgXgXgX",
"gXgXgXgXgXgXgXgXuX'.A.A.A.A.A.M.S.D.D.B.j.3.S E 4.r.N.x.x.k.k.^.g.g.g.l.f.f.Q.y.p w w w w w w w a 0 w t s h 6XgXgXgXgXgXgXgXgXgX",
"gXgXgXgXgXgXgXgXpX[.A.A.M.M.A.Z.B.N.e.E S E 3.r.N.N.x.h.h.g.d.g.g.f.f.f.g.f.l.a.p 0 0 0 w 0 w w 0 0 0 w w h 6XgXgXgXgXgXgXgXgXgX",
"gXgXgXgXgXgXgXgXyX+XA.b.Z.B.j.r.^ p p E 3.r.N.N.j.j.h.d.f.s.p.f.s.f.f.f.f.f.l.p.p e w w e e e e e t e t e g 6XgXgXgXgXgXgXgXgXgX",
"gXgXgXgXgXgXgXgXyXH.N.j.r.^ p p E ^ 4.i.N.k.h.h.d.d.s.u.p.p.f.f.s.s.f.&.&.f.l.d.p e q q q q 9 9 5 6 6 9 q g 4XgXgXgXgXgXgXgXgXgX",
"gXgXgXgXgXgXgXgXuXN.E i S E E 4.i.h.j.h.h.a.h.d.p.p.p.p.p.&.p.&.&.$.#.$.f.g.^.h.p 8 8 8 6 6 6 6 5 6 9 6 q f 1XgXgXgXgXgXgXgXgXgX",
"gXgXgXgXgXgXgXgXrX3.S E ^ e.h.h.h.u.a.a.u.u.p.p.p.p.p.%.%.%.&.O.O.O.#.f.g.k.k.a.i 3 5 8 1 5 5 9 5 5 6 6 q y ;XfXgXgXgXgXgXgXgXgX",
"gXgXgXgXgXgXgXgXtXi.u.h.h.u.u.u.y.u.y.y.p.y.y.%.%.%.%.$.$. .O.O.[ [ X.z.k.x.^.a.i 7 6 4 : 3 3 5 5 5 3 5 7 y E.fXgXgXgXgXgXgXgXgX",
"gXgXgXgXgXgXgXgXtXx.u.u.u.y.y.@.y.@.@.y.%.%.@.@.%.$.X.X.O. .$.X.} ^ Z e.o.e.e.o.i 8 8 7 5 5 5 4 9 5 3 3 4 a U.gXgXgXgXgXgXgXgXgX",
"gXgXgXgXgXgXgXgXtXd.%.y.y.@.@.@.@.@.@.@.@.@.@. .X.X.O.O. .@.%.p.e.^ ^ u.y.o.! ~ i < 4 < 3 < < 5 1 1 3 3 5 t U.gXgXgXgXgXgXgXgXgX",
"gXgXgXgXgXgXgXgXrX@./ / / ! / / R ! R / ! ! ! ! ) ! ! ! { ..o.e.o.....e.....W ~ i 4 < < < < < 5 1 3 3 3 5 t H.gXgXgXgXgXgXgXgXgX",
"gXgXgXgXgXgXgXgXrX~ / / / / / / / / { [ { { | { { ....X.o.e.p.u.e.y.y.X.X.O.} ) i 4 2 < < < 4 4 3 3 3 1 3 t S.gXgXgXgXgXgXgXgXgX",
"gXgXgXgXgXgXgXgXwXQ |  . .{ |  . . .} {  . .X...X.%.o.p.y.y.e.d.y.X.X.X.$.#.O.A r 4 2 < = = < : = = : : 1 e M.gXgXgXgXgXgXgXgXgX",
"gXgXgXgXgXgXgXgX6XY |  ./ I I ~ / U U U Q ~ ! Z ~ ..^ ....W W X.Z Z U Y +.#.] P u 2 , , > > < : = = > : 3 q m.gXgXgXgXgXgXgXgXgX",
"gXgXgXgXgXgXgXgX6XY ` | ` I Y / { Q U Q ! o.~ W ~ ..Q ....~ ~ [ T ) ` _ +.+.' P r , , , , , , , % > > > , q q.gXgXgXgXgXgXgXgXgX",
"gXgXgXgXgXgXgXgXqXI ` | ` r U Q @.Q U U Q X.W W Q ! U Z U [ Y I ) O.O.] ' ' ' A r , , , * , , , % > , , * 8 0.gXgXgXgXgXgXgXgXgX",
"gXgXgXgXgXgXgXgXqXY ` | R I U Q / Q ^ W ~ @.~ Q ! ~ T Q C R Y P ) ' ' L ' ' L K r , , $ $ * * , , * , % * 4 6.gXgXgXgXgXgXgXgXgX",
"gXgXgXgXgXgXgXgXqXI ) ` R C C Z U Q Q I T  .~ Z U U I R c A C P ( ( N M L L L M ; & & $ $ $ $ * * * * * * 7 <.fXgXgXgXgXgXgXgXgX",
"gXgXgXgXgXgXgXgXwXI ( ] ) C I I U / T I I / Q C I Y P ) n A N F K K K m L L H H ; + + + $ & & & @ & @ @ * 2 >.fXgXgXgXgXgXgXgXgX",
"gXgXgXgXgXgXgXgXqXI ( _ P ; C C I R I C C R C C P ) C A n n c x M M m m J H H z ; + + $ $ # o o @ o @ @ * 2 >.fXgXgXgXgXgXgXgXgX",
"gXgXgXgXgXgXgXgXqXP F _ P c C I P R P P C Y C P A P N M M D v b K J m z H G V l - + + + + + X o @ @ @ # & * h fXgXgXgXgXgXgXgXgX",
"gXgXgXgXgXgXgXgXqXA F ( F c P P P n P C ; n F ; ; n M b x D M m J J H H G G V l - . O + + + + + # # # $ # , g fXgXgXgXgXgXgXgXgX",
"gXgXgXgXgXgXgXgXwXA K _ K n N A P n F n ; F F F b F M b v m m m J H G G V V B l -   O O O + + O O O O O # % f fXgXgXgXgXgXgXgXgX",
"gXgXgXgXgXgXgXgXwXA F ( N x b c b b b ; b D F b b b b b x v v J H G V V B B B l -   . . O O O O O O O $ O % f sXgXgXgXgXgXgXgXgX",
"gXgXgXgXgXgXgXgXqXA M K K x v b x b M b b D F D M D D m v z z H H B V V B B B l -   . . . . . .   O   O O # p fXgXgXgXgXgXgXgXgX",
"gXgXgXgXgXgXgXgXqXA M K K M K M D F K D K D L K K J J K H H H G G V V V V V B l -   O . . . . . O O O # # % f sXgXgXgXgXgXgXgXgX",
"gXgXgXgXgXgXgXgXqXA v m v m m m m b D F D D M D D M m m m m m z z z l z l l z m ` 6.6.6.8.6.9.0.v.q.c.b.b.m.;XfXgXgXgXgXgXgXgXgX",
"gXgXgXgXgXgXfXfXiX(.^.^.(.^.`.`._._.XXXXoXoXoXoXoXXXXXoXXXXXXXXXXX}.`.XX}.XX.X@XeXyXuXuXaXaXaXaXsXsXgXdXfXfXfXgXgXgXgXgXgXgXgXgX",
"gXgXgXgXgXgXgXfXfXdXsXsXsXsXgXsXfXfXsXfXfXfXfXfXgXfXfXfXfXfXfXfXfXfXfXgXgXgXgXgXgXgXgXgXgXgXgXgXgXgXgXgXgXgXgXgXgXgXgXgXgXgXgXgX"
};
