/* XPM */
static char *_8fa8577738e42a998dd7d2c01361237Pm0Qs2uLwi89BWoW[] = {
/* columns rows colors chars-per-pixel */
"64 64 232 2 ",
"   c #3E362E",
".  c #58381F",
"X  c #42392F",
"o  c #4F3E2D",
"O  c #533D28",
"+  c #453B32",
"@  c #4A3E34",
"#  c #58422F",
"$  c #4B4237",
"%  c #4D4339",
"&  c #524536",
"*  c #53493E",
"=  c #7B593E",
"-  c #3E4547",
";  c #28657A",
":  c #36697C",
">  c #454744",
",  c #4A4945",
"<  c #4C4E4B",
"1  c #544C42",
"2  c #5A4E44",
"3  c #514E49",
"4  c #4D514E",
"5  c #55534D",
"6  c #5D5549",
"7  c #5B544C",
"8  c #565754",
"9  c #5D5A53",
"0  c #615A4F",
"q  c #7A5E46",
"w  c #645D54",
"e  c #625F58",
"r  c #7A614C",
"t  c #696259",
"y  c #716559",
"u  c #746A5E",
"i  c #796A5A",
"p  c #535E61",
"a  c #506D74",
"s  c #64696B",
"d  c #736D65",
"f  c #7A736A",
"g  c #686D71",
"h  c #677475",
"j  c #777876",
"k  c #7A7C7A",
"l  c #83796F",
"z  c #857D73",
"x  c #847F78",
"c  c #7F817D",
"v  c #87837A",
"b  c #8B847B",
"n  c #91897E",
"m  c #CE8A53",
"M  c #D1966B",
"N  c #0D6489",
"B  c #196988",
"V  c #146B92",
"C  c #1B7796",
"Z  c #286C87",
"A  c #376E85",
"S  c #29728C",
"D  c #33728A",
"F  c #3B768B",
"G  c #2A7B96",
"H  c #337B94",
"J  c #3A7C92",
"K  c #0576A4",
"L  c #037BA3",
"P  c #137FA2",
"I  c #487688",
"U  c #567889",
"Y  c #56788A",
"T  c #537C8C",
"R  c #467E93",
"E  c #697D86",
"W  c #7B7D82",
"Q  c #817F85",
"!  c #2C849E",
"~  c #3A829A",
"^  c #0A83A6",
"/  c #1989A9",
"(  c #288CA8",
")  c #398CA5",
"_  c #3892AA",
"`  c #3095B0",
"'  c #488599",
"]  c #548494",
"[  c #5A8595",
"{  c #5A8A9A",
"}  c #5F919E",
"|  c #7A868A",
" . c #628594",
".. c #668896",
"X. c #628C9C",
"o. c #6B8E9E",
"O. c #758B94",
"+. c #6E929E",
"@. c #458CA2",
"#. c #4C91A6",
"$. c #5894A6",
"%. c #499BB2",
"&. c #599EB2",
"*. c #6593A2",
"=. c #6A94A4",
"-. c #669BAA",
";. c #6C9DAC",
":. c #7B95A2",
">. c #7798A7",
",. c #739CAB",
"<. c #699EB2",
"1. c #58A1B6",
"2. c #6FA0AE",
"3. c #74A1AE",
"4. c #7DA2AE",
"5. c #69A2B4",
"6. c #75A3B3",
"7. c #7BA3B3",
"8. c #7DA9B8",
"9. c #78B5C9",
"0. c #6EB9D0",
"q. c #878787",
"w. c #948D84",
"e. c #958C88",
"r. c #95918B",
"t. c #9A9389",
"y. c #9B948B",
"u. c #8A9195",
"i. c #9A9896",
"p. c #AA998E",
"a. c #A39C93",
"s. c #A59E99",
"d. c #A6A19B",
"f. c #AAA49D",
"g. c #B5AA9F",
"h. c #859CA6",
"j. c #A19DA2",
"k. c #85A4AE",
"l. c #8BA6AE",
"z. c #97A6AD",
"x. c #83A5B3",
"c. c #8AA7B1",
"v. c #84A9B6",
"b. c #8CAAB4",
"n. c #86ACB9",
"m. c #8CADBA",
"M. c #93ABB3",
"N. c #9BADB4",
"B. c #95ACB8",
"V. c #8AB1BE",
"C. c #9DB0B7",
"Z. c #95B2BD",
"A. c #9BB3BC",
"S. c #A9A6A8",
"D. c #B5ADA8",
"F. c #B7B2AB",
"G. c #BEB2AB",
"H. c #A3ADB3",
"J. c #ADADB3",
"K. c #B1AEB3",
"L. c #A3B4BC",
"P. c #A9B4BA",
"I. c #B4B3B5",
"U. c #BAB5B5",
"Y. c #BDBAB6",
"T. c #B6B4B9",
"R. c #BAB6BA",
"E. c #BDBABC",
"W. c #D1AC94",
"Q. c #C4B5AE",
"!. c #C8B8A9",
"~. c #C6BBB3",
"^. c #C2BCBD",
"/. c #BCC1BE",
"(. c #DBC0A9",
"). c #CAC3B9",
"_. c #D2C8BD",
"`. c #86B9C9",
"'. c #8BBCCD",
"]. c #96BAC7",
"[. c #9BBDCB",
"{. c #8DBED1",
"}. c #A3BBC5",
"|. c #A9BCC6",
" X c #B7BEC6",
".X c #BCBDC2",
"XX c #C3BEC2",
"oX c #C8BEC3",
"OX c #99C1CF",
"+X c #88C4D7",
"@X c #94C2D3",
"#X c #9BC3D3",
"$X c #A5C1CC",
"%X c #ACC1CB",
"&X c #B4C1CA",
"*X c #BCC6CC",
"=X c #BCC8CE",
"-X c #AAC9D5",
";X c #B5CAD3",
":X c #B6CBD4",
">X c #B3D2DF",
",X c #97CFE1",
"<X c #AAD5E4",
"1X c #B8D7E1",
"2X c #BDD8E3",
"3X c #C4C2C4",
"4X c #CBC3C3",
"5X c #C6C8C6",
"6X c #CDCAC4",
"7X c #C3C5CA",
"8X c #CCC6CA",
"9X c #C4C8CE",
"0X c #CDCEC9",
"qX c #CCCACC",
"wX c #D3CDC3",
"eX c #D1CCCB",
"rX c #D6D3CA",
"tX c #DCD4CC",
"yX c #DAD8D4",
"uX c #E3DCD6",
"iX c #E6E1DB",
"pX c #CADBE2",
"aX c #D1DDE1",
"sX c #D5E6ED",
"dX c #DAE5E9",
"fX c #E6E7E7",
"gX c #EBECEC",
"hX c #EBEEEF",
"jX c #F3F2F1",
"kX c #F9F8F6",
"lX c #FDFDFD",
"zX c white",
/* pixels */
"zXzXzXzXzXzXzXzXzXzXzXzXzXzXzXzXzXzXzXzXzXzXzXzXzXzXzXzXzXzXzXzXzXzXzXzXzXzXzXzXzXjXrXeXuXuXkXzXzXzXzXzXzXzXzXzXzXzXzXzXzXzXzXzX",
"zXzXzXzXzXzXzXzXzXzXzXzXzXzXzXzXzXzXzXzXzXzXzXzXzXzXzXzXzXzXzXzXzXzXzXzXzXzXzXzXzXjX0X6XyXuXjXzXzXzXzXzXzXzXzXzXzXzXzXzXzXzXzXzX",
"zXzXzXzXzXzXzXzXzXzXzXzXzXzXzXzXzXzXzXzXzXzXzXzXzXzXzXzXzXzXzXzXzXzXzXzXzXzXzXzXzXjX6X6XtXuXjXzXzXzXzXzXzXzXzXzXzXzXzXzXzXzXzXzX",
"zXzXzXzXzXzXzXzXzXzXzXzXzXzXzXzXzXzXzXzXzXzXzXzXzXzXzXzXzXzXzXzXzXzXzXzXzXzXzXzXzXjX0X6XyXiXjXzXzXzXzXzXzXzXzXzXzXzXzXzXzXzXzXzX",
"zXzXzXzXzXzXzXzXzXzXzXzXzXzXzXzXzXzXzXzXzXzXzXzXzXzXzXzXzXzXzXzXzXzXzXzXzXzXzXzXlXjXwX6XtXiXgXjXgXgXkXzXzXlXzXzXzXzXzXzXzXzXzXzX",
"zXzXzXzXzXzXzXzXzXzXzXzXzXzXzXzXzXzXzXzXzXzXzXzXzXzXzXzXzXzXzXzXzXzXzXzXzXzXzXzXlXjX0X_.tXtXrXtXuXuXgXzXzXzXzXzXzXzXzXzXzXzXzXzX",
"zXzXzXzXzXzXzXzXzXzXzXzXzXzXzXzXzXzXzXzXzXzXzXzXzXzXzXzXzXzXzXzXzXzXzXzXzXlXzXzXlXjXwX(.W.(._.wXtXuXuXzXzXzXzXzXzXzXzXzXzXzXzXzX",
"zXzXzXzXzXzXzXzXzXzXzXzXzXzXzXzXzXzXzXzXzXzXzXlXzXzXzXzXzXzXzXzXzXzXzXzXlXlXlXlXkXjX_.(.W.W.).tXtXuXuXzXzXzXzXzXzXzXzXzXzXzXzXzX",
"zXzXzXzXzXzXlXlXhX1X1X1X2X2XpX2XpX1X2XpX2X1X2X2X2X2XpX2X2X>X1X1X<X<X<X#X,X,X+X<XlXjX0X).W.W.).wXtXuXuXzXjXgXzXzXzXzXzXzXzXzXzXzX",
"zXzXzXzXzXzXzXkXsX`.OX#X$X$X$X#X#X#X{.'.`.`.`.'.+X@X@X#X#X#X,X#X@X+X+X0.0.0.0.+XsXkX0X).=X).!.wXtXuXuXjXeX0XzXzXzXzXzXzXzXzXzXzX",
"zXzXzXzXzXzXzXlXpX[.$X;X;X;X;X;X;X;X;X-X-X[.`.9.9.9.9.{.{.#X@X{.{.@X+X+X0.0.0.`.yXuXwX)././.)._.tXuXiXuX^.rXzXzXzXzXzXzXzXzXzXzX",
"zXzXzXzXzXzXlXlXsX[.|.&X&X=X=X=X=X=X=X=X;X;X;X;X-X#X'.9.9.9.{.{.#X#X{.'.9.0.0.9.rXrX_.5X/.).!.).tXtX_.g.K.eXlXzXzXzXzXzXzXzXzXzX",
"zXzXzXzXzXzXzXkXsX|. X X*X*X=X*X=X*X*X*XXX:X:X9X X:XoX1X1X].9.9.'.[.[.[.{.`.0.`.rXrX).).0X).g.!.wXwXQ.d.D.5XlXzXzXzXzXzXzXzXzXzX",
"zXzXzXzXzXzXzXzXfX|.=X*X*X7X7X*X7X*X*X*X:X:XoX9X9X9X9XoX9X9X X[.9.9.{.[.{.'.`.'.0X_.!.)._.).M W.wX).D.g.D.4XlXzXzXzXzXzXzXzXzXzX",
"zXzXzXzXzXzXzXkXhX X*X7X^.j.K.R.XX*X*X=XoX9X9X9X9X8X9X9X9X9X9XqX*X].9.'.[.[.{.[.rXwXF.!._.!.M !._.).D.s.S.^.kXzXzXzXzXzXzXzXzXzX",
"zXzXzXzXzXzXzXkXhX XXXT.s.S.s.K.S.T.7XoX9X9XoX9X9XoX9X8XqX9XqXqX8X9X}.`.[.[.[.}._.wX!.)._.).C.&X6X~.S.a.S.).lXzXzXzXzXzXzXzXzXzX",
"zXzXzXzXzXzXzXlXfX X X XXXK.S.j.j.XXoXoXoX9XoX9XoXoX8XoXoX8X8X8XqXqXqX&X].OXOX}.)._.!.).).Y.d.I._.~.d.i.S.Y.kXzXzXzXzXzXzXzXzXzX",
"zXzXzXzXzXzXzXlXfX XoXXX.XXXXX.X.XR..XXX X.XR..XoXoX.XJ.oX8X8X8X8XqXqX9X|.$X}.L.d.p.a.g.Y.).Y.).~.f.s.d.d.Y.jXzXzXzXzXzXzXzXzXzX",
"zXzXzXzXzXzXzXlXgX.XXXS.g Q W s Q u.i.W j.r.g Q K.Q Q K.oX9X8XeXeXeXqXqX*X}.$XL.r.e.n n g.rXwXwX^.d.y.a.f.~.jXzXzXzXzXzXzXzXzXzX",
"zXzXzXzXzXzXzXlXgX X.XJ.W g W g W Q j.s u.S.g Q K.i.j.g S.oXqXoX8X8X6X0X*X|.%XL.a.d.d.d.a.d.a.a.y.r.y.i.s.U.jXzXzXzXzXzXzXzXzXzX",
"zXzXzXzXzXzXzXzXgX.X.XJ.W W q.g Q Q j.Q i.S.Q Q q.e.j.i.S.eXoX8X8X8X8X8X&X%X%XP.i.a.a.a.p.p.y.y.t.w.t.y.i.F.jXlXzXzXzXzXzXzXzXzX",
"zXzXzXzXzXzXzXlXfX.XE.E.E..XXX.XoXXXoXoXoXoXoXoXoX~.XX~.oXoX8X8XoXeX4XXXP.%X%XP.i.a.y.t.y.y.t.t.w.q.t.r.r.F.jXlXzXzXzXzXzXzXzXzX",
"zXzXzXzXzXzXzXzXgXT.E.R.G.D.D.G.G.K.G.G.Q.Q.Q.Q.!.W.m m m m M oX4X4XXXL.z./.$XL.r.t.t.t.t.t.t.n v v w.r.q.S.gXzXzXzXzXzXzXzXzXzX",
"zXzXzXzXzXzXzXlXgXR.R.U.G.S.S.S.K.S.S.S.K.K.K.K.!.W.m m M M M oX4X.XN.u.|.|.%X}.r.w.t.t.n t.n n q.k b v q.f.fXzXzXzXzXzXzXzXzXzX",
"zXzXzXzXzXzXzXzXfXT.T.T.G.F.G.G.Q.Q.Q.Q.Q.Q.Q.Q.Q.Q.W.!.!.!.~.oX Xz.| H.|.|.|.H.w.n n n n n n b b j j c v d.fXzXzXzXzXzXzXzXzXzX",
"zXzXzXzXzXzXzXzXgXE.T.T.J.H.J.J.J.J.S..X.XK..XoXoXoXoXoXoXXXoX Xh.E H.|.|.|.[.C.q.v b b b b b b b v v g h y.fXzXzXzXzXzXzXzXzXzX",
"zXzXzXzXzXzXzXzXjX3XT.T.J.J.K.K.K.K.J.T.I.I.^.oXXXoXoXoXoX.XA.u.| H.|.P.L.].].N.q.z z z b b z v v v v j g u.fXkXzXzXzXzXzXzXzXzX",
"zXzXzXzXzXzXzXzXjXoXT.T.R.R.R.R..X^..X.XXX^.^.^.^.^.^..X}.h.| u. XL.L.}.].A.].M.v l z z l z l l l l l f g r.fXzXzXzXzXzXzXzXzXzX",
"zXzXzXzXzXzXzXzXjX.XT.I.T.U.R.R.R.R.^.R.XX^.XX^.Q.XX|.z.| W j.}.L.L.A.].A.].Z.c.q.u.| | | q.x k f f f j j r.aXzXzXzXzXzXzXzXzXzX",
"zXzXzXzXzXzXzXzXjX7XT.T.U.I.U.U.I.^.R.XX^.R.R.R.}.z.O.g u.H.H.}.A.A.Z.Z.Z.V.].x.E E  .=.z.T..X*X5X5X7XN.a w.uXzXzXzXzXzXzXzXzXzX",
"zXzXzXzXzXzXzXzXjXXXT.I.K.U.U.T.R.R.^.R.R.T.J.z.W g W H.N.L.A.Z.B.Z.V.Z.V.V.n.k.k f f i d f f f j k | | s w.yXzXzXzXzXzXzXzXzXzX",
"zXzXzXzXzXzXzXzXgX.XK.I.I.I.I.U.R.U.I.K.H.h.E s Q H.}.H.B.B.B.m.n.n.m.n.n.V.V.k.j i i l i i i i i i i u f w.yXzXzXzXzXzXzXzXzXzX",
"zXzXzXzXzXzXzXzXjX/.J.F.I.F.I.I.I.L.M.O.g s u.H.H.H.N.B.c.].c.`.n.n.n.n.n.n.`.h.j q = q q q q r r r q r i n yXzXzXzXzXzXzXzXzXzX",
"zXzXzXzXzXzXzXzXhX/.J.F.J.J.H.l.:.h 8 g h.H.H.N.B.B.B.m.c.c.x.x.v.n.x.`.n.n.m.b.k u y i u i u u u u u d u b rXzXzXzXzXzXzXzXzXzX",
"zXzXzXzXzXzXzXzXhX/.J.H.z.h.c p s q.z.H.N.N.B.z.B.c.x.x.x.x.x.x.v.n.v.v.8.8.].c.k y y e e t e e 9 s t e y v 0XzXzXzXzXzXzXzXzXzX",
"zXzXzXzXzXzXzXzXhXP.:.h p s c z.N.B.N.M.M.c.c.c.c.x.x.x.x.x.7.`.8.7.5.5.8.m.Z.l.k y e w e e w 9 8 8 t 9 e z 0XzXzXzXzXzXzXzXzXzX",
"zXzXzXzXzXzXzXzXyXh p | z.N.z.l.l.l.M.l.c.k.c.x.x.x.7.7.3.7.7.6.<.&.<.8.m.Z.Z.M.g - 4 5 - < 4 8 < < 5 8 w z 6XzXzXzXzXzXzXzXzXzX",
"zXzXzXzXzXzXzXzXhX|.M.M.l.l.l.l.l.k.k.k.x.k.x.7.x.7.6.6.6.6.<.$.] [ :.].A.C.Z.l.j w w w 8 0 8 w w 9 9 9 w f ).zXzXzXzXzXzXzXzXzX",
"zXzXzXzXzXzXzXzXfXA.l.l.k.k.k.k.4.k.4.4.7.7.7.3.7.,.,.,.<.-.<.6.3.o.E h.:.h.>.:.j w w 0 < 5 5 7 8 8 < 4 9 f ).zXzXzXzXzXzXzXzXzX",
"zXzXzXzXzXzXzXzXdXb.x.4.4.4.3.4.4.3.3.3.,.6.,.6.,.;.<.<.<.3.x.k.:.O.O.k.k.:.....h 3 3 3 3 < 3 3 < < 3 3 5 d Y.zXzXzXzXzXzXzXzXzX",
"zXzXzXzXzXzXzXzXdX4.3.2.2.,.;.-.-.=.=.=.*.o.X.} X.{ { X.o.o.:.:.h.:.h.O.>.o.T =.Y 7 7 7 7 3 9 0 5 5 7 8 9 d Y.zXzXzXzXzXzXzXzXzX",
"zXzXzXzXzXzXzXzXaX .[  .[ [ [ [ [ { { } } =.*.=.o.=.>.>.x.c.c.c.c.c.m.x.8.6.5.X.h 7 3 > > , 3 3 , 3 < < 5 d F.zXzXzXzXzXzXzXzXzX",
"zXzXzXzXzXzXzXzXaX..-.;.;.5.2.2.3.3.3.6.6.6.7.7.9.x.x.v.c.].c.m.m.v.7.6.6.5.5.R h 7 2 2 > > 3 , > - > > 3 u F.zXzXzXzXzXzXzXzXzX",
"zXzXzXzXzXzXzXzXaX[ *.;.} a ] } *.T a I T  .Y U E +.Y :.E Y Y >.I I Y R 5.1.1.#.Y 2 2 , % > 1 > > - , , 3 y S.zXzXzXzXzXzXzXzXzX",
"zXzXzXzXzXzXzXzXpX{ $.-.$.T X.=.;.X...+.=.>.>.o.+.h.=.4.4.=.*.<.T *.#.$.1.1.%.R a 2 1 1 * 2 2 1 $ - % , 1 t f.zXzXzXzXzXzXzXzXzX",
"zXzXzXzXzXzXzXzXyX] $.-.} a I T >...[ T ..>.Y Y T  .Y Y T } ] a R &.&.&.%.%.%.R a 1 1 * * * 1 1 1 1 1 1 1 0 s.zXzXzXzXzXzXzXzXzX",
"zXzXzXzXzXzXzXzXaX] $.-.*.T  .o.,.o.+...=.,.=.=.*.=.X.[ T $.$.$.&.1.%.%.%.%.` J a , , * @ 1 * 1 * * * * * 9 i.zXzXzXzXzXzXzXzXzX",
"zXzXzXzXzXzXzXzXdX] ' $.$.I I I Y [ T U T =. .U T T T $.: I I ~ R @.J H ` ` ` H a @ @ & * % @ 1 * * * * * 7 t.zXzXzXzXzXzXzXzXzX",
"zXzXzXzXzXzXzXzXaX] @.#.#.I [ T [ } X.{ { $.-.] ] ' ' $.~ ' J ' @._ ) G ( ` / G : @ @ $ $ & $ & & # # # & * y.zXzXzXzXzXzXzXzXzX",
"zXzXzXzXzXzXzXzXaX' @.#.R A R T ] -.{ a ' } : a ' { F F F D ; ; S S S G / / ^ C : @ @ @ @ @ O O O O & & * 7 t.zXzXzXzXzXzXzXzXzX",
"zXzXzXzXzXzXzXzXpXR @.#.J : R R ] ' ' I : ' ' ' ' #.' ~ F ! H S ( G ( P ^ ^ K V ; + @ @ @ $ o O # O # & % 1 q.zXzXzXzXzXzXzXzXzX",
"zXzXzXzXzXzXzXzXyXR ) @.@.R ' ' #.: ' ~ : ' ' : : A S : Z H H G ` ( / ^ ^ ^ K V ; + o @ o @ $ $ X $ $ $ $ * v zXzXzXzXzXzXzXzXzX",
"zXzXzXzXzXzXzXzXsXR H @.J D F J ' ~ ~ F : ~ ~ F F ~ ~ S ; ! ! G ( / ^ L L L K V ; X + X + @ + + X $ $ + $ $ v kXzXzXzXzXzXzXzXzX",
"zXzXzXzXzXzXzXzXaX@.H @.) D D D D F : : D ~ ~ D D ~ D S S ; S / P L ^ L K K K V ;   X + + + + + X X   $ $ % k lXzXzXzXzXzXzXzXzX",
"zXzXzXzXzXzXzXzXaXR H ) H ; D D : S D S S ~ ! ~ D ~ ! ! S S C ^ ^ L L L K L K V ;   X X X X   + X X X X + % v kXzXzXzXzXzXzXzXzX",
"zXzXzXzXzXzXzXzXpXR G ) ) ( ) ) ) _ ) ) ) _ _ _ _ ( ( ( / / / ^ ^ L L L L L K V ;   X X X X X + X $ X $ + $ j kXzXzXzXzXzXzXzXzX",
"zXzXzXzXzXzXzXzXpXR ; Z Z Z Z Z Z Z S Z Z S S Z Z Z B B B B B N N N N N N N N C #.q.n w.q.e.r.t.i.d.f.S.D.I.6XzXzXzXzXzXzXzXzXzX",
"zXzXzXzXzXzXzXzXhX[.].].[.[.[.[.$X}.:X-X;X:X>X:X>X:X>X;X-X>X-X-X-X-X-X-X-X;X-X>XsXzXzXzXzXzXzXzXzXzXzXzXzXzXzXzXzXzXzXzXzXzXzXzX",
"zXzXzXzXzXzXzXzXkXlXzXzXzXzXlXzXzXzXzXzXzXzXzXzXzXzXzXzXzXzXzXzXzXzXzXzXzXzXzXzXzXzXzXzXzXzXzXzXzXzXzXzXzXzXzXzXzXzXzXzXzXzXzXzX",
"zXzXzXzXzXzXzXzXzXlXzXzXzXzXzXzXzXzXzXzXzXzXzXzXzXzXzXzXzXzXzXzXzXlXzXzXzXzXzXzXzXzXzXzXzXzXzXzXzXzXzXzXzXzXzXzXzXzXzXzXzXzXzXzX",
"zXzXzXzXzXzXzXzXzXzXzXzXzXzXzXzXzXzXzXzXzXzXzXzXzXzXzXzXzXzXzXzXzXzXzXzXzXzXzXzXzXzXzXzXzXzXzXzXzXzXzXzXzXzXzXzXzXzXzXzXzXzXzXzX",
"zXzXzXzXzXzXzXzXzXzXzXzXzXzXzXzXzXzXzXzXzXzXzXzXzXzXzXzXzXzXzXzXzXzXzXzXzXzXzXzXzXzXzXzXzXzXzXzXzXzXzXzXzXzXzXzXzXzXzXzXzXzXzXzX",
"zXzXzXzXzXzXzXzXzXzXzXzXzXzXzXzXzXzXzXzXzXzXzXzXzXzXzXzXzXzXzXzXzXzXzXzXzXzXzXzXzXzXzXzXzXzXzXzXzXzXzXzXzXzXzXzXzXzXzXzXzXzXzXzX",
"zXzXzXzXzXzXzXzXzXzXzXzXzXzXzXzXzXzXzXzXzXzXzXzXzXzXzXzXzXzXzXzXzXzXzXzXzXzXzXzXzXzXzXzXzXzXzXzXzXzXzXzXzXzXzXzXzXzXzXzXzXzXzXzX"
};
