/* XPM */
static char *_d16ca8d55fe4640a85d6a38277e5f5dxuVnESFwRvgchLEW[] = {
/* columns rows colors chars-per-pixel */
"64 64 196 2 ",
"   c #221E38",
".  c #2A1F38",
"X  c #25233C",
"o  c #2B243C",
"O  c #252C3D",
"+  c #2C293E",
"@  c #342137",
"#  c #33233A",
"$  c #3C2339",
"%  c #332B3E",
"&  c #3E293C",
"*  c #3D323F",
"=  c #452538",
"-  c #442D3E",
";  c #4A2C3D",
":  c #41323F",
">  c #4B313F",
",  c #2D2A42",
"<  c #332C43",
"1  c #3C2D42",
"2  c #2C3342",
"3  c #2C3B43",
"4  c #343245",
"5  c #3A3444",
"6  c #343B45",
"7  c #393C43",
"8  c #363548",
"9  c #39364A",
"0  c #363C4A",
"q  c #3D3A4C",
"w  c #442D42",
"e  c #4D2E41",
"r  c #443241",
"t  c #4D3443",
"y  c #443B45",
"u  c #4C3B46",
"i  c #42374A",
"p  c #433D4B",
"a  c #4C3A4C",
"s  c #513545",
"d  c #513A46",
"f  c #533649",
"g  c #543C4C",
"h  c #583C4E",
"j  c #423B52",
"k  c #4C3E51",
"l  c #543E51",
"z  c #593F51",
"x  c #2F4546",
"c  c #314547",
"v  c #3C4246",
"b  c #34424B",
"n  c #3C444A",
"m  c #334949",
"M  c #3A4B4C",
"N  c #3E4651",
"B  c #374B50",
"V  c #3C4D51",
"C  c #3D5152",
"Z  c #484147",
"A  c #44444B",
"S  c #4C434C",
"D  c #414D4D",
"F  c #4C4B4F",
"G  c #54424B",
"H  c #58464D",
"J  c #544A4E",
"K  c #594B4F",
"L  c #44504F",
"P  c #464353",
"I  c #4B4353",
"U  c #444953",
"Y  c #4B4B55",
"T  c #4D4C59",
"R  c #534453",
"E  c #5B4253",
"W  c #544C53",
"Q  c #5B4D52",
"!  c #5C4758",
"~  c #534C5A",
"^  c #5C4C5B",
"/  c #455454",
"(  c #4B5251",
")  c #455559",
"_  c #4C555B",
"`  c #4D595E",
"'  c #545454",
"]  c #5C5455",
"[  c #5C5857",
"{  c #53535C",
"}  c #5B535C",
"|  c #525B5D",
" . c #5D5B5B",
".. c #634B5C",
"X. c #605557",
"o. c #62555B",
"O. c #645D5B",
"+. c #67605F",
"@. c #564E63",
"#. c #5B4F63",
"$. c #4B5E61",
"%. c #565463",
"&. c #535D61",
"*. c #5B5B64",
"=. c #5C5568",
"-. c #5D5A69",
";. c #674E60",
":. c #655363",
">. c #6A5263",
",. c #655C64",
"<. c #685C65",
"1. c #645E6B",
"2. c #6C5B6A",
"3. c #715C6C",
"4. c #6A5F72",
"5. c #4A6165",
"6. c #5D6465",
"7. c #5D646B",
"8. c #656263",
"9. c #6A6463",
"0. c #6C6867",
"q. c #63636A",
"w. c #6B646A",
"e. c #64696A",
"r. c #6D6B6B",
"t. c #72636E",
"y. c #706E6D",
"u. c #72706F",
"i. c #666071",
"p. c #6B6274",
"a. c #676A73",
"s. c #6B6C74",
"d. c #6F6778",
"f. c #6F6C7B",
"g. c #746474",
"h. c #796576",
"j. c #736C74",
"k. c #796C76",
"l. c #746D7A",
"z. c #7B6C7A",
"x. c #697176",
"c. c #767676",
"v. c #787376",
"b. c #74727B",
"n. c #7A757A",
"m. c #76797A",
"M. c #7D7A7D",
"N. c #80757D",
"B. c #6C7C84",
"V. c #757482",
"C. c #7E7484",
"Z. c #737A84",
"A. c #7E7C81",
"S. c #757C89",
"D. c #7A7D8B",
"F. c #847484",
"G. c #837D84",
"H. c #897887",
"J. c #857B89",
"K. c #8B7D8C",
"L. c #6E868C",
"P. c #7D8285",
"I. c #7D858B",
"U. c #7A868D",
"Y. c #7C8A95",
"T. c #858087",
"R. c #85838A",
"E. c #8C838D",
"W. c #81898E",
"Q. c #8E8590",
"!. c #828D92",
"~. c #838C93",
"^. c #8C8C95",
"/. c #8B8C99",
"(. c #938694",
"). c #948794",
"_. c #948795",
"`. c #958896",
"'. c #968897",
"]. c #958A99",
"[. c #849196",
"{. c #85949B",
"}. c #8A939C",
"|. c #8E97A1",
" X c #8199A2",
".X c #8D9AA3",
"XX c #8B9BA4",
"oX c #8C9FAA",
"OX c #9493A1",
"+X c #939DA9",
"@X c #8DA1AB",
"#X c #92A1AD",
"$X c #8FA6B1",
"%X c #93A4B1",
"&X c #91ABB6",
"*X c #94ADB9",
/* pixels */
"E.T.,.j !..XE.(.E.(.E.(.E.c.% I.#XE.Q.E.Q.'.Q.E.).N.% m.@X^.E.E.(.E.N.9 x.XX^.E.E.Q.Q.Q.E.G.~ %.{.}.Q.Q.E.E.E.(.E.E.,.q !.XXQ.Q.",
"c.G.g.:.XXc.c.c.c.c.c.c.m.H.t #Xc.c.c.c.c.c.c.c.c.E.e XXA.c.c.c.c.c.E.h !.P.c.c.c.c.c.c.c.G...l.~.c.c.c.c.c.m.c.c.N.h.^ XXc.c.c.",
"c.c.o.^ E.c.c.c.c.c.c.c.c.0.r _.c.c.c.c.c.c.c.c.c.c.r K.m.c.c.c.c.c.c.u F.G.c.c.c.c.c.c.c.v.K 2.T.c.c.c.c.c.c.c.m.c.O.E E.m.c.c.",
"c.r.' | E.c.c.c.c.c.c.c.y. .M '.c.c.c.c.c.c.c.c.c.O.n K.M.c.c.c.c.c.O.n A.N.m.c.c.c.c.c.c.9.L s.G.c.c.c.c.c.c.c.c.y.' { Q.c.c.c.",
"c.r.' { E.c.c.c.c.c.c.y.O.[ n '.c.c.m.c.c.c.c.c.c.O.- K.M.c.c.c.c.c.+.n A.G.c.c.c.c.c.c.9.O.F p.E.c.c.c.c.c.c.c.c.y.W E E.c.c.m.",
"c.0.G E E.m.c.c.j.c.y.O.j.Q - (.m.c.c.c.c.c.y.c.j.[ c J.M.c.c.c.y.c.O.- z.G.c.c.c.c.j.8.0.+.u 2.G.c.c.c.c.c.c.c.c.w.J _ E.N.c.c.",
"] G @ 8 b.F.e.] ' ]  .[ Q $ X r.K.y.y.s.' w.X.X.[ = o 6.H.j.r.s. .[ - . *.F.c. .] ' ] [ [ u . I N.M.y.w.,. .q.] ] J @ 8 j.F.y.0.",
"n w , , < t b o X , C M e , , , ; e e o   o s > M , + , e e . X B r < , , w A , X X b V y & , , w ; e w X X 1 t y c , , < t = X ",
"+X_.'.'.).'.E.q.4 P.#X'.'.'.(.Q.c.).).c.  m.&X'._._._._._.M.< e.#X].'.'._._._.G.i -.XXOX).).).).G.G.'.J.{ I ~.+X_._.'._._.E.q.4 ",
"c.c.c.c.c.c.M.F.R @Xc.c.c.c.c.O.+.c.c.).= *Xm.c.c.c.c.c.c.E.f w.c.c.c.c.c.c.c.T.! I.U.c.c.c.c.0.O.0.c.G.3.1.XXc.c.v.c.c.c.M.F.s ",
"c.c.c.c.c.c.c.9.h E.c.m.c.c.+._.c.c.c.u.= '.c.c.c.c.c.c.c.c.t w.c.c.c.c.c.c.c.c.G h.G.c.c.c.0.n.T.c.c.c.o...E.c.c.c.c.c.c.c.9.s ",
"c.c.c.c.c.c.y.[ ) (.c.c.u.+.).c.c.c.c.O.m '.c.m.c.m.c.c.c.8.M r.m.c.c.c.c.c.c.9.U c.G.c.m.9.N.G.c.c.c.r.( q.E.c.c.c.c.c.c.u.' U ",
"c.m.c.c.c.c.y.' ) Q.c.c.c.c.c.m.c.c.c.X.= '.c.c.c.c.c.c.c.+.M e.c.c.c.c.c.c.c.9.M b.G.c.c.c.c.c.c.c.c.y.G ..E.c.c.c.c.c.c.u.' C ",
"c.c.c.c.c.c.y.' ) Q.c.c.c.c.c.c.c.c.c.O.= '.c.O.c.c.c.c.c.O.M e.c.c.c.c.c.c.c.+.D b.G.c.c.c.c.c.c.c.c.0.G o.R.y.+.c.c.c.c.u.[ C ",
"T.r.9.y.O.O.K $ 4 M.(.c.c.u.O.O.O.O.[ =   c.'.c.O.O.O.O.O.; . q.(.m.O.c.O.O.O.t o %.T.G.c.c.0.O.O.+.O.G @ A G.E.y.O.O.O.O.K $ 4 ",
": 7 @ X   . $     . = = =       = = x     X = x x       $ .   X = c - .     $ .     $ = = #     @ = * O     # * m O       $     ",
"'.'.E.*.9 P.%X'.'.'.'.).).0.X m.*X'.'.'._.'.'.'.'.c.o r.%X].'.'._._._.M.8 *.@XOX'.'.'._._.G.U T [.+X'.).'.'.'.'.'.E.} 9 P.%X_._.",
"m.c.N.z.^ @Xm.m.m.v.c.m.M.K.e &Xm.c.m.c.c.c.m.c.m.'.; @XP.m.c.c.m.c.c.Q.h ~.I.m.c.c.c.c.m.G.>.l.[.m.c.c.c.c.c.c.c.G.N.! oXm.m.c.",
"c.c.c.<...Q.c.c.m.c.c.c.c.y.; '.c.c.m.c.c.c.c.c.c.n.; E.m.c.c.c.c.c.c.c.f F.N.c.c.c.c.c.c.m.! 2.T.c.c.c.c.c.c.c.c.c.+.E (.c.c.c.",
"c.c.y.Q h Q.c.c.c.c.c.c.c.O.M _.c.c.c.c.c.c.c.c.c.O.; K.M.c.c.c.c.c.c.9.t z.A.c.m.c.c.c.c.r.F s.E.c.c.c.c.c.c.c.c.u.K ..E.c.c.c.",
"c.c.r.' { Q.m.c.c.c.c.c.c.[ t _.c.c.c.c.v.c.c.m.c.O.c E.m.c.c.c.c.c.c.9.n A.G.c.c.v.c.c.c.0.d 2.G.c.c.c.m.c.c.c.c.y.' ` E.c.c.c.",
"c.c.r.' ` E.c.c.c.c.m.c.c.[ M _.c.c.c.m.m.c.c.c.c.O.m E.M.c.c.c.c.c.c.O.M A.A.c.c.c.c.c.c.9.( r.T.c.c.c.c.c.c.c.c.r.' ` (.c.c.c.",
"c.c.y.Q Q Q.c.c.c.c.c.m.y.[ M _.c.c.c.v.c.c.c.c.c.O.; K.M.+.c.c.c.c.c.9.r N.N.m.m.c.c.c.m.0./ a.T.c.v.v.c.c.c.c.c.y.K E E.y.9.c.",
"+.+.Q & i N.E.u.+.O.+.O.X.- , M.).c.c.c.+.+.O.+.O.> o j.E.c.8.O.+.O.O.d # w.E.n.0.O.+.+.O.G # { G.G.c.c.u.+.+.+.O.] = q G.E.y.O.",
"> ; -   X 1 t , , 2 M v - X   , / s t < + + m M > .   + / u ; < ; > e o   , t 5 o , 0 M y @   X b S t r + + 2 M A $   X 8 U t - ",
"F.H.z.s.C.F.C.{ , s.Y.J.F.G.C.F.G.F.F.q.  e. XT.F.F.C.C.J.G.F.F.F.H.F.r.z.C.F.d.8 T U.~.J.F.F.C.J.F.F.k.I 9 Z.[.J.F.C.F.C.J.F.F.",
"N.n.c.0.A.M.G.z.R XXI.A.N.M.M.N.N.M.M.Q.$ #XT.n.M.n.M.M.N.M.M.M.N.N.M.9.v.M.M.T.R Z.[.A.M.M.M.M.M.M.M.T.2.-.}.P.M.M.M.M.G.M.N.M.",
"c.c.c.y.0.c.c.r.h }.c.c.c.c.c.m.m.c.c.N.= OXc.c.c.c.m.c.c.c.c.c.m.c.c.c.9.c.c.M.G z.T.c.c.c.c.c.c.c.c.M.:.:.^.c.c.c.c.c.c.c.c.c.",
"c.c.c.c.c.c.c.] Y E.c.c.c.c.c.c.c.c.c.+.7 '.m.c.c.c.c.c.c.c.c.c.c.c.c.c.y.c.c.0.D z.G.c.c.c.c.c.c.c.c.r.' -.R.c.c.c.c.c.c.c.c.c.",
"c.c.c.c.c.c.y.] ) (.c.c.c.m.c.c.c.c.c.O.m '.c.c.m.c.c.c.c.c.c.c.c.c.c.c.c.c.c.9.M b.G.c.m.c.c.c.c.c.c.0.( 7.T.c.c.c.c.c.c.c.c.c.",
"c.u.0.y.+.9.X.: 0 G.T.c.c.c.+.c.9.9.+.> O M.E.c.c.m.9.c.9.8.9.+.c.c.0.c.0.+.9.G % q.T.N.c.c.0.r.y.9.9.Q * Y G.T.c.c.u.0.u.9.9.9.",
"J / / D t u v o X p ! G ) ) L / d > L o   0 ! ) ) / ( / D u D 5 d / L / u d A % . 4 R H Y ) / / S t Z 7 X , a ' / ) / L / A Z n ",
"z.s._ 8 w.D.b.l.f.g.h.h.b.6.2 6.U.h.b.d.d.f.h.b.b.q.2 &.L.z.b.j.h.b.7.0 W V.Z.d.d.d.h.h.l.s.U N x.C.l.l.d.d.g.z.b.s.{ 6 7.L.z.l.",
"M.G.h.R XXP.M.N.M.M.M.M.M.E.$ #XI.A.M.M.M.N.M.N.A.E.t Y.W.A.M.N.M.M.E.g S.[.M.M.M.M.M.M.M.T.:.1.{.P.M.A.M.M.M.M.M.G.z.I @XP.M.M.",
"c.m.w.E /.c.c.c.c.c.c.c.c.M.= OXc.c.c.c.c.c.m.c.c.M.t E.A.c.c.c.c.c.M.h n.P.c.c.c.c.c.c.c.m.o.2.E.c.c.c.c.c.c.c.c.c.w.z ].c.c.c.",
"c.c.] _ Q.c.c.c.c.c.c.c.c.8.7 '.c.c.c.c.c.c.c.c.c.9.n J.M.c.c.c.c.c.0.A C.T.c.c.c.c.c.c.c.r.W q.R.c.c.c.c.c.c.c.c.c. .Y Q.c.m.c.",
"c.r.' _ E.c.c.c.c.m.c.c.+.O.m '.c.c.c.c.c.c.c.c.c.+.r J.M.c.m.c.c.c.9.M b.G.c.c.c.c.c.c.r.+.( 7.J.c.c.c.m.c.c.c.c.y.' R Q.c.c.c.",
"c.r.Q W (.c.c.c.c.c.c.9.0.O.: _.c.c.c.c.c.c.c.c.c.O.v J.N.c.c.c.c.c.+.u z.G.c.c.c.c.c.r.0.9.S 2.T.c.c.c.c.c.c.c.c.y.' Y (.c.c.c.",
"9.X.r i J.G.c.9.9.9.9.O.+.u o G.E.c.m.c.9.c.9.9.9.d + c.E.m.c.c.0.9.H # w.J.M.0.9.9.9.+.+.Q = ~ T.G.c.c.y.9.c.9.9.O.r q G.G.c.c.",
"D : o o P Q U 5 4 7 D A s .   q ..z H p 4 p u s D %   8 ^ E p q D u #   8 ! { n 5 8 v L S & o < R ..G a q q a u u 7 . X k ..R n ",
"Z.g.1.p.4.h.s.Y o -.L.j.h.i.4.4.o.h.h.{ . ~ Z.h.x.p.i.p.g.>.< P B.l.4.4.1.g.l.-.8 j x.B.h.p.i.i.2.<.h.2.j 4 7.C.h.l.i.i.p.t.^ o ",
"W.F.G.G.G.G.G.z.5 XXY.G.G.G.G.v.9.G.G.E.# {.!.G.T.T.G.G.G.T.a ,.W.T.G.G.G.G.G.G.R s.~.!.G.G.G.N.y.j.G.G.2.~ {.W.G.G.G.J.G.G.n.1 ",
"m.c.c.c.c.c.M.c.s OXc.c.c.c.r.N.0.c.c.G.= OXm.m.c.c.c.c.c.G.g 9.c.c.c.c.c.c.c.G.! l.!.c.c.c.y.c.k.y.c.m.2.:.^.c.c.c.c.c.c.c.j.s ",
"c.c.c.m.c.c.c.,.A ).c.c.c.9.M.F.c.c.c.0.7 _.m.c.c.c.c.c.m.0.Z e.m.c.c.c.c.c.c.r.S j.G.c.c.y.y.G.M.c.c.c.] %.T.c.c.c.c.c.c.c.8.y ",
"c.c.c.c.c.c.j.[ / (.c.c.c.r.G.c.c.c.c.O.5 ).c.c.c.c.c.c.c.+.M e.c.c.c.c.c.c.c.9.D f.G.m.c.y.c.N.c.c.c.y.W } E.c.c.c.c.c.c.y.] M ",
"c.c.c.c.c.c.u.[ C '.c.c.m.c.c.c.c.c.c.O.= _.n.0.c.c.c.c.c.8.M e.c.c.c.c.c.c.c.9.Y s.G.c.c.c.c.c.c.c.c.y.H ..E.c.r.c.c.c.c.c. .B ",
"n.c.r.c.0.0.9.u 0 G.G.c.c.c.0.0.0.0.0.G # F.G.y.9.w.0.0.0.K 4 6.G.m.y.c.0.0.0.] 6 q.G.m.c.c.y.0.0.0.r.X.r R T.M.r.0.0.0.0.8.Z 6 ",
"2.' G Y p p u @ X ~ 2...X.Y y y G G ( #   Y 2. .( A p y G &   P 2.*.G W A p G -   q :.o.o.^ P y u G J y . < } ,.| F y p Z u # X ",
",.q...q o T i.#.@.#.>.>.;.P   P s.>.7.#.#.%.>.q.7.T X p q.=.@.#.:.q.:.~ , 9 ,.=.@.#.:.>.>.^ 4 4 %.2.,.-.#.%.#.<.7.-.q o T 1.@.@.",
"T.E.R.s.p [.}.T.T.R.E.T.K.G.# [.}.R.T.T.T.T.E.T.T.J.5 S.{.E.R.T.J.E.T.T.k s.{.!.T.E.T.T.T.G.#.%.{.^.R.R.E.T.T.E.T.T.s.i {.}.T.T.",
"c.c.n.h.E |.m.c.m.c.c.c.m.T.= #Xc.m.c.c.m.c.c.c.m.G.s /.A.c.m.c.c.c.c.G.z D.W.c.m.c.c.c.m.G.>.i.^.c.c.c.c.c.c.c.c.M.k.E OXc.m.m.",
"c.c.c.O.h Q.c.c.m.c.c.c.c.0.: ].c.c.c.c.m.v.c.c.v.r.e H.M.c.c.c.m.c.c.y.f h.M.c.c.c.c.c.c.y.W <.R.c.c.c.c.c.c.c.c.c.o.h (.c.c.c.",
"c.c.y.' R Q.c.c.c.c.c.c.c.O.7 '.c.c.c.c.m.c.c.c.c.O.r J.M.c.c.c.c.c.c.9.u z.G.c.c.c.c.c.c.0.F 1.J.c.c.c.c.c.c.c.c.u.] G (.c.c.c.",
"c.c.y.] ) ).c.c.c.c.c.c.c.X.: '.c.c.c.m.c.c.c.c.c.O.M J.M.c.c.c.c.c.c.9.D b.G.c.c.m.c.c.c.0.J ,.T.c.c.c.c.c.c.c.c.j.' ) E.c.c.c.",
"c.c.y.' Y _.c.c.c.c.c.c.c.O.m '.m.c.c.c.c.c.c.c.m.O.A J.M.u.c.c.c.c.c.+.A c.N.c.c.c.c.c.c.0.Y 7.T.c.c.c.c.c.c.c.c.y.' Y (.c.y.c.",
"y.y.9.G f G.M.c.y.y.y.y.0.K 3 E.N.c.c.c.u.u.r.r.y.Q $ N.G.0.0.y.y.y.y.X.: g.T.M.j.y.y.y.u.o.A *.E.M.c.c.c.r.u.r.y.9.h a T.M.9.y.",
"K K h # < q.h.*.J Y ' ' K # X *.n.<.9.,.Y J ' ' Q &   ~ l.0.Q J K K K - . I g.i.' Y W ' W t o q s.j.,.,.[ Y W ' ' G @ , q.m.,.K ",
"E E g 8 q j h 4 X 9 5._ E p j j _ E z 8   4 5.` E j j j _ E E j z E E i q j z p o + ) $.W k j q U ~ E g , X N $._ l j j j { E z ",
"E.E.G.v.(.E.E.j.< I.@XQ._.E.E.E.Q.Q.E.N.o P.oX(.E.(.Q.Q.Q.Q.Q.(.E.(.E.v.T.E.Q.G.P -.{.}.(.E.E.(.Q.E.Q.G.*.I !.XXE.E.(.E.E.E.E.(.",
"c.c.c.9.j.c.m.F.f #Xc.c.c.c.c.m.c.m.m.(.= #Xm.c.c.c.c.c.c.c.c.c.c.c.c.0.y.c.c.J...C.W.c.c.c.c.c.c.c.c.A.g.:.XXc.c.c.c.c.c.c.c.c.",
"c.c.c.c.9.c.c.9.u (.c.c.c.c.c.c.c.c.c.u.= (.m.c.c.c.c.c.c.c.c.c.c.c.c.c.0.y.c.c.W g.G.c.c.c.c.c.m.c.c.c.o...E.c.c.c.c.c.c.c.c.c.",
"c.c.c.c.c.c.y.[ C (.c.c.c.c.c.c.c.c.c.O.m _.m.m.c.c.c.c.c.c.c.c.c.c.c.c.c.c.c.9.D s.G.c.c.c.c.c.c.v.c.r.( | E.m.c.c.c.c.c.c.c.c.",
"c.c.c.c.c.y.y.Q M (.M.c.c.m.c.c.y.y.y.] x E.N.m.c.c.c.c.c.y.y.c.c.c.c.c.c.c.u.O.A s.G.c.c.c.c.c.c.j.c.9.F ` E.M.c.c.c.c.c.j.c.j.",
"r.e. .0.X.] J # , r.H.r.x.r.] r.X.] [ =   e.G.x.y.r. .q. .[ ] ] 9.r. .e.X.[ ] t . T N.m.0.x.8.O.8.] ] G @ 0 c.N.r.x.0. .0.] ] [ "
};
